<?xml version="1.0" standalone="no"?>
<!DOCTYPE svg PUBLIC "-//W3C//DTD SVG 20010904//EN"
 "http://www.w3.org/TR/2001/REC-SVG-20010904/DTD/svg10.dtd">
<svg version="1.0" xmlns="http://www.w3.org/2000/svg"
 width="633.000000pt" height="633.000000pt" viewBox="0 0 633.000000 633.000000"
 preserveAspectRatio="xMidYMid meet">
<metadata>
Created by potrace 1.11, written by Peter Selinger 2001-2013
</metadata>
<g transform="translate(0.000000,633.000000) scale(0.100000,-0.100000)"
fill="#000000" stroke="none">
<path d="M40 3165 l0 -3125 3125 0 3125 0 0 3125 0 3125 -3125 0 -3125 0 0
-3125z m6040 0 l0 -2915 -2915 0 -2915 0 0 2915 0 2915 2915 0 2915 0 0 -2915z"/>
<path d="M3385 5560 c-4 -11 -34 -78 -67 -148 -123 -260 -148 -312 -148 -316
0 -2 -23 -53 -51 -112 -69 -147 -116 -247 -149 -319 -70 -154 -116 -251 -192
-415 -22 -47 -53 -112 -68 -145 -15 -33 -53 -113 -84 -178 -31 -65 -56 -120
-56 -122 0 -3 -31 -70 -70 -151 -38 -80 -70 -148 -70 -149 0 -2 -25 -57 -56
-122 -31 -65 -82 -174 -114 -243 -54 -117 -81 -175 -167 -360 -19 -41 -59
-127 -89 -191 -29 -64 -80 -174 -114 -244 -33 -70 -60 -129 -60 -130 0 -3
-109 -234 -115 -245 -2 -3 53 -5 123 -5 l126 0 24 50 c14 28 28 57 33 66 4 9
51 113 104 230 54 117 119 260 146 317 27 57 49 106 49 108 0 2 27 60 60 130
33 69 60 132 60 138 0 7 4 16 9 22 5 5 29 54 54 109 25 55 62 136 82 180 21
44 70 152 110 240 40 88 125 273 188 410 63 138 127 277 142 310 81 178 230
504 268 584 29 63 23 76 72 -149 19 -91 40 -185 46 -210 19 -80 140 -624 145
-650 5 -23 40 -183 50 -222 2 -10 6 -28 9 -40 2 -13 11 -52 19 -88 12 -52 43
-192 82 -365 2 -11 7 -33 10 -50 2 -16 9 -46 14 -65 5 -19 11 -47 14 -62 2
-15 7 -31 9 -35 3 -5 8 -26 11 -48 4 -22 11 -56 16 -75 5 -19 18 -78 29 -130
11 -52 30 -135 41 -185 11 -49 22 -99 24 -110 2 -11 9 -40 15 -65 5 -25 12
-56 14 -70 3 -14 14 -65 26 -113 12 -49 23 -103 27 -120 3 -17 7 -34 10 -36 3
-3 61 -6 130 -6 107 -1 123 1 119 15 -2 8 -9 38 -15 65 -6 28 -20 88 -31 135
-12 47 -23 94 -25 105 -2 11 -15 72 -30 135 -15 63 -30 131 -34 150 -11 51
-65 284 -100 435 -17 72 -48 209 -70 305 -35 154 -81 357 -95 415 -3 11 -9 41
-14 67 -6 26 -17 73 -25 105 -8 32 -17 69 -20 83 -2 14 -25 115 -51 225 -26
110 -49 210 -51 223 -3 13 -18 83 -35 155 -17 73 -40 170 -50 217 -22 98 -24
105 -43 185 -7 33 -21 94 -31 135 -9 41 -18 82 -20 90 -2 8 -13 56 -24 105
-12 50 -30 127 -40 173 -21 93 -26 103 -36 72z"/>
<path d="M1419 1978 c-4 -9 -3 -1198 1 -1199 3 0 14 -2 25 -4 11 -2 47 -7 80
-10 33 -4 63 -9 67 -11 3 -2 12 -2 20 1 11 4 13 91 13 486 l0 481 65 -7 c36
-3 72 -8 80 -10 8 -2 42 -6 75 -10 33 -3 74 -8 90 -10 29 -4 69 -9 170 -20 28
-4 61 -8 75 -10 14 -2 51 -7 83 -10 32 -4 66 -8 75 -10 9 -1 46 -6 82 -10 36
-4 73 -9 82 -10 9 -2 48 -7 85 -10 37 -4 75 -8 83 -10 8 -2 44 -7 80 -10 36
-4 72 -8 80 -10 8 -2 47 -6 85 -10 39 -4 77 -9 85 -10 9 -2 43 -6 75 -10 61
-7 78 -9 150 -19 22 -3 63 -8 90 -11 180 -21 217 -25 235 -30 8 -2 51 -7 94
-10 44 -3 82 -7 85 -9 3 -2 36 -7 73 -10 37 -4 77 -9 90 -11 34 -5 107 -14
158 -20 127 -14 147 -17 170 -20 14 -2 50 -7 80 -10 30 -3 66 -8 80 -10 14 -2
50 -7 80 -10 30 -3 66 -8 80 -10 14 -2 54 -7 90 -10 36 -4 72 -9 80 -10 8 -1
44 -6 80 -10 36 -4 73 -9 83 -11 15 -3 17 8 17 111 l0 114 -47 6 c-27 4 -59 8
-73 10 -14 2 -83 11 -155 20 -124 15 -146 17 -240 29 -33 5 -246 31 -420 52
-22 2 -56 6 -75 9 -19 3 -55 7 -80 10 -25 3 -56 8 -70 10 -14 2 -52 7 -85 10
-68 6 -124 13 -175 20 -19 3 -52 8 -72 10 -21 3 -53 7 -70 9 -18 2 -58 7 -88
11 -61 7 -217 26 -330 40 -43 6 -281 34 -335 41 -22 2 -51 6 -65 9 -14 2 -54
7 -90 11 -36 3 -72 7 -80 9 -8 1 -44 6 -80 10 -36 4 -72 9 -80 10 -8 2 -44 6
-80 10 -36 4 -72 8 -80 10 -8 2 -44 6 -80 10 -36 4 -73 9 -82 10 -9 2 -48 7
-85 10 -37 4 -75 8 -83 10 -8 3 -42 7 -75 10 -33 3 -87 10 -120 15 -64 10 -74
11 -76 8z"/>
</g>
</svg>
