<?xml version="1.0" encoding="utf-8"?>
<!-- Generator: Adobe Illustrator 22.0.1, SVG Export Plug-In . SVG Version: 6.00 Build 0)  -->
<svg version="1.1" id="Layer_1" xmlns="http://www.w3.org/2000/svg" xmlns:xlink="http://www.w3.org/1999/xlink" x="0px" y="0px"
	 viewBox="0 0 150 150" style="enable-background:new 0 0 150 150;" xml:space="preserve">
<style type="text/css">
	.st0{fill:#FFFFFF;}
</style>
<path class="st0" d="M75,0C33.6,0,0,33.6,0,75c0,41.4,33.6,75,75,75s75-33.6,75-75C150,33.6,116.4,0,75,0z M44.5,127.8H22.2V56.2
	h22.3V127.8z M33.4,46.5c-7.1,0-12.9-5.8-12.9-12.9c0-7.1,5.8-12.9,12.9-12.9c7.1,0,12.9,5.8,12.9,12.9
	C46.3,40.7,40.5,46.5,33.4,46.5z M127.8,127.8h-22.2V93c0-8.3-0.1-19-11.6-19c-11.6,0-13.3,9-13.3,18.4v35.4H58.5V56.2h21.3V66h0.3
	c3-5.6,10.2-11.6,21-11.6c22.5,0,26.7,14.8,26.7,34.1V127.8z"/>
</svg>
