<?xml version="1.0" encoding="utf-8"?>
<!-- Generator: Adobe Illustrator 22.0.1, SVG Export Plug-In . SVG Version: 6.00 Build 0)  -->
<svg version="1.1" id="Layer_1" xmlns="http://www.w3.org/2000/svg" xmlns:xlink="http://www.w3.org/1999/xlink" x="0px" y="0px"
	 viewBox="0 0 150 150" style="enable-background:new 0 0 150 150;" xml:space="preserve">
<style type="text/css">
	.st0{fill-rule:evenodd;clip-rule:evenodd;fill:#FFFFFF;}
</style>
<path class="st0" d="M75.4,2C34,2,0.5,35.5,0.5,76.8c0,33.1,21.4,61.1,51.2,71c3.7,0.7,5.1-1.6,5.1-3.6c0-1.8-0.1-6.5-0.1-12.7
	c-20.8,4.5-25.2-10-25.2-10c-3.4-8.6-8.3-10.9-8.3-10.9c-6.8-4.6,0.5-4.5,0.5-4.5c7.5,0.5,11.5,7.7,11.5,7.7
	c6.7,11.4,17.5,8.1,21.8,6.2c0.7-4.8,2.6-8.1,4.7-10c-16.6-1.9-34.1-8.3-34.1-37c0-8.2,2.9-14.8,7.7-20.1c-0.8-1.9-3.3-9.5,0.7-19.8
	c0,0,6.3-2,20.6,7.7c6-1.7,12.4-2.5,18.7-2.5c6.4,0,12.8,0.9,18.7,2.5c14.3-9.7,20.6-7.7,20.6-7.7c4.1,10.3,1.5,17.9,0.7,19.8
	c4.8,5.2,7.7,11.9,7.7,20.1c0,28.7-17.5,35.1-34.2,36.9c2.7,2.3,5.1,6.9,5.1,13.9c0,10-0.1,18.1-0.1,20.5c0,2,1.3,4.3,5.1,3.6
	c29.7-9.9,51.1-37.9,51.1-71C150.2,35.5,116.7,2,75.4,2z"/>
</svg>
